<svg xmlns="http://www.w3.org/2000/svg" viewBox="0 0 538 440" width="538" height="440">
	<defs>
		<clipPath clipPathUnits="userSpaceOnUse" id="cp1">
			<path d="M-31 -80L569 -80L569 520L-31 520Z"/>
		</clipPath>
		<linearGradient id="grd1" gradientUnits="userSpaceOnUse" x1="282.099" y1="328.096" x2="462.086" y2="214.771">
			<stop offset="0" stop-color="#a5a6a9"/>
			<stop offset="0.539" stop-color="#e6e6e7"/>
			<stop offset="1" stop-color="#a5a6a9"/>
		</linearGradient>
		<linearGradient id="grd2" gradientUnits="userSpaceOnUse" x1="317.45" y1="384.155" x2="497.486" y2="270.799">
			<stop offset="0" stop-color="#a5a6a9"/>
			<stop offset="0.539" stop-color="#e6e6e7"/>
			<stop offset="1" stop-color="#a5a6a9"/>
		</linearGradient>
		<linearGradient id="grd3" gradientUnits="userSpaceOnUse" x1="304.846" y1="364.08" x2="484.866" y2="250.734">
			<stop offset="0" stop-color="#a5a6a9"/>
			<stop offset="0.539" stop-color="#e6e6e7"/>
			<stop offset="1" stop-color="#a5a6a9"/>
		</linearGradient>
	</defs>
	<style>
		tspan { white-space:pre }
		.shp0 { fill: #ef4d24 } 
		.shp1 { fill: #ff6e24 } 
		.shp2 { fill: url(#grd1) } 
		.shp3 { fill: url(#grd2) } 
		.shp4 { fill: #65666b } 
		.shp5 { fill: #897a71 } 
		.shp6 { fill: url(#grd3) } 
		.shp7 { fill: #013059 } 
	</style>
	<g id="Page 1" clip-path="url(#cp1)">
		<path id="Path 1" class="shp0" d="M85.96 160.16L219.55 0.84L219.55 117.79L85.96 212.7L85.96 160.16ZM85.96 227.95L219.78 143.21L219.78 359.31L85.96 318.63L85.96 227.95Z"/>
		<path id="Path 2" class="shp1" d="M219.55 0.84L219.55 117.79L393.01 118.94L443.55 169.79L443.55 109.82L219.55 0.84ZM219.33 143.21L219.33 359.31L444.24 322.57L444.24 188.19L393.36 137.31L219.33 143.21Z"/>
		<path id="Path 3" class="shp0" d="M429.61 282.98L429.56 282.98L429.61 246.1L426.7 246.69L426.79 282.98L405.64 282.98L405.64 240.57L383.14 237.62L383.14 238.11L290.7 218.38L276.08 225.02L276.08 257.69L279.54 258.33L279.54 258.43L320.88 261.79L319.95 342.87L323.44 342.3L323.44 342.3L358.66 336.53L358.66 264.92L383.14 267.04L383.14 332.55L390.76 331.28L405.11 328.93L405.27 307.69L426.84 307.04L426.88 325.36L429.5 324.93L444.37 322.5L444.37 247.94L429.61 246.1L429.61 282.98Z"/>
		<path id="Path 4" class="shp2" d="M290.24 252.05L331.23 255.39L329.24 364.6L361.73 357.28L361.73 257.92L390.24 260.38L390.24 235.05L290.7 218.38L290.24 252.05Z"/>
		<path id="Path 5" class="shp3" d="M453.26 331.39L466.23 329.39L465.9 297.84L482.11 296.38L482.11 281.26L466.57 281.39L466.57 266.05L484.57 266.05L484.57 249.55L453.39 246.19L453.26 331.39Z"/>
		<path id="Path 6" class="shp4" d="M287.11 251.38L290.7 252.05L290.7 218.38L287.11 220.05L287.11 251.38ZM326.36 362.44L329.23 364.6L331.24 255.39L327.59 255.09L326.36 362.44ZM390.02 346.05L392.9 347.38L392.9 235.05L390.23 235.88L390.02 346.05Z"/>
		<path id="Path 7" class="shp5" d="M432.48 336.34L434.76 336.6L434.82 298.72L434.9 242.72L432.27 243.25L432.48 336.34Z"/>
		<path id="Path 8" class="shp4" d="M451.06 331.26L453.26 331.51L453.39 246.19L450.86 246.7L451.06 331.26Z"/>
		<path id="Path 9" class="shp6" d="M392.9 235.05L392.9 347.39L412.57 343.05L412.9 298.38L434.82 297.72L434.76 336.6L448.23 334.05L448.23 244.38L434.9 242.72L434.9 276.05L413.24 276.05L413.24 237.72L392.9 235.05Z"/>
		<path id="Path 10" class="shp7" d="M13.16 386.98L0.26 386.98L0.26 375.96L40.42 375.96L40.42 386.98L27.52 386.98L27.52 425.82L13.16 425.82L13.16 386.98ZM99.25 375.96L113.61 375.96L113.61 395L130 395L130 375.96L144.29 375.96L144.29 425.82L130 425.82L130 406.16L113.61 406.16L113.61 425.82L99.25 425.82L99.25 375.96ZM80.71 426.1L68.34 426.1L68.34 422.23C66.04 423.79 63.92 425.01 62.07 425.82C60.14 426.64 57.9 427.04 55.21 427.04C50.98 427.04 47.65 425.96 45.41 423.72C43.11 421.49 41.95 418.17 41.95 413.84L41.95 390.95L54.38 390.95L54.38 408.35C54.38 410.18 54.44 411.6 54.57 412.82C54.7 413.97 54.96 414.99 55.47 415.73C55.86 416.55 56.56 417.09 57.46 417.43C58.28 417.76 59.56 417.97 61.11 417.97C62.19 417.97 63.35 417.76 64.63 417.43C65.9 417.09 67.13 416.55 68.34 415.87L68.34 390.95L80.71 390.95L80.71 426.1ZM462.97 390L462.97 397.86C462.08 397.72 461.12 397.72 460.03 397.72C458.3 397.72 456.44 398.05 454.46 398.66C452.41 399.35 450.99 399.82 450.17 400.22L449.14 400.22L449.14 391.7C450.29 391.42 452.15 391.02 454.65 390.61C457.21 390.2 459.71 389.93 462.27 389.93C462.53 389.93 462.78 390 462.97 390ZM462.97 375.71L462.97 385.94L456.89 385.94L462.97 375.71ZM462.97 410.31C461.88 410.52 461.05 410.72 460.35 410.92C459.32 411.26 458.49 411.81 457.91 412.48C457.4 413.16 457.09 414.04 457.09 415.12C457.09 415.87 457.14 416.47 457.27 416.95C457.4 417.36 457.66 417.83 458.17 418.23C458.62 418.64 459.13 418.98 459.77 419.19C460.41 419.39 461.44 419.46 462.78 419.46L462.97 419.46L462.97 426.16C462.4 426.36 461.76 426.57 461.12 426.71C459.96 426.97 458.75 427.04 457.4 427.04C454.19 427.04 451.58 426.03 449.46 423.99C447.34 421.9 446.26 419.25 446.26 416.07C446.26 413.5 446.83 411.4 447.86 409.77C448.94 408.15 450.49 406.86 452.54 405.91C454.46 404.96 456.95 404.29 459.83 403.88C460.86 403.75 461.95 403.61 462.97 403.54L462.97 410.31ZM462.97 385.94L462.97 375.71L464.19 373.68L474.57 373.68L474.57 374.29L464.19 385.94L462.97 385.94ZM468.86 416.95L468.86 409.63C467.46 409.77 465.86 409.91 464.19 410.11C463.74 410.18 463.36 410.24 462.97 410.31L462.97 403.54C464.9 403.34 466.88 403.13 468.93 403L468.93 402.86C468.93 400.9 468.17 399.55 466.69 398.8C465.73 398.33 464.51 398.05 462.97 397.86L462.97 390C468.67 390.07 472.84 391.02 475.4 392.91C478.09 394.88 479.44 397.99 479.44 402.19L479.44 426.16L468.86 426.16L468.86 422.37C468.29 422.84 467.59 423.38 466.75 424.06C465.92 424.74 465.09 425.21 464.32 425.62C463.87 425.82 463.42 426.03 462.97 426.16L462.97 419.46C464 419.46 464.96 419.19 465.99 418.78C467.08 418.31 468.03 417.7 468.86 416.95ZM537.75 427.04L527.11 427.04L527.11 378.35L537.75 378.35L537.75 427.04ZM525.08 386.88L513.8 386.88L513.8 378.35L525.08 378.35L525.08 386.88ZM524.75 427.04L514.13 427.04L514.13 391.9L524.75 391.9L524.75 427.04ZM500.43 427.04C497.55 427.04 494.92 426.7 492.49 425.96C490.12 425.21 488.01 424.13 486.28 422.57C484.48 421.08 483.14 419.12 482.18 416.81C481.22 414.51 480.7 411.81 480.7 408.69C480.7 405.44 481.22 402.59 482.24 400.22C483.27 397.85 484.74 395.82 486.6 394.26C488.39 392.78 490.5 391.69 492.81 391.02C495.18 390.34 497.62 390 500.11 390C502.42 390 504.47 390.27 506.39 390.74C508.31 391.29 510.11 391.96 511.77 392.84L511.77 402.46L510.3 402.46C509.85 402.06 509.34 401.65 508.76 401.11C508.18 400.63 507.48 400.09 506.64 399.62C505.81 399.21 504.92 398.8 503.95 398.53C502.99 398.19 501.84 398.05 500.56 398.05C497.74 398.05 495.56 399.01 494.02 400.9C492.49 402.8 491.72 405.44 491.72 408.69C491.72 412.08 492.49 414.65 494.09 416.41C495.63 418.17 497.87 419.05 500.75 419.05C502.1 419.05 503.31 418.85 504.4 418.51C505.49 418.23 506.32 417.83 507.1 417.42C507.73 416.95 508.31 416.55 508.82 416.07C509.34 415.6 509.85 415.19 510.3 414.71L511.77 414.71L511.77 424.33C510.11 425.14 508.37 425.82 506.52 426.36C504.66 426.84 502.68 427.04 500.43 427.04ZM413.99 375.96L447.67 375.96L447.67 387.05L428.35 387.05L428.35 397.65L443.76 397.65L443.76 408.18L428.35 408.18L428.35 425.82L413.99 425.82L413.99 375.96ZM160.5 385.73L147.43 385.73L147.43 377.2L160.5 377.2L160.5 385.73ZM160.12 425.89L147.75 425.89L147.75 390.74L160.12 390.74L160.12 425.89ZM184.07 426.77C182.98 426.71 182.02 426.5 181.19 426.3C179.65 425.82 178.05 425.28 176.45 424.47L176.45 439.16L164.09 439.16L164.09 391.08L176.45 391.08L176.45 394.74C178.37 393.39 180.29 392.23 182.28 391.42C182.85 391.15 183.43 390.95 184.07 390.74L184.07 398.6L183.62 398.6C182.47 398.6 181.25 398.81 180.03 399.07C178.76 399.41 177.6 399.89 176.45 400.5L176.45 418.17C177.28 418.51 178.18 418.64 179.07 418.78C180.03 418.85 181 418.91 181.89 418.91C182.66 418.91 183.37 418.85 184.07 418.78L184.07 426.77ZM204.38 408.15C204.38 411.06 203.93 413.7 202.9 416.07C201.94 418.44 200.66 420.4 199.06 421.96C197.46 423.59 195.6 424.87 193.49 425.69C191.37 426.5 189.19 426.91 186.76 426.91C185.8 426.91 184.9 426.91 184.07 426.77L184.07 418.78C186.25 418.44 187.98 417.63 189.19 416.28C190.8 414.51 191.63 411.87 191.63 408.42C191.63 404.96 190.99 402.46 189.71 400.97C188.49 399.48 186.57 398.73 184.07 398.6L184.07 390.74C185.61 390.34 187.27 390.14 189.13 390.14C193.93 390.14 197.72 391.7 200.4 394.94C203.03 398.13 204.38 402.53 204.38 408.15ZM226.47 425.89C219.75 425.89 214.56 424.26 210.85 420.88C207.13 417.56 205.27 413.02 205.27 407.26C205.27 401.44 207.2 396.84 210.91 393.52C214.62 390.2 219.81 388.58 226.47 388.58L226.47 396.43C225.26 396.43 224.17 396.57 223.27 396.84C222.31 397.18 221.48 397.72 220.58 398.6C219.88 399.41 219.24 400.56 218.79 401.99C218.34 403.41 218.15 405.17 218.15 407.34C218.15 409.23 218.34 410.92 218.72 412.28C219.11 413.7 219.68 414.85 220.46 415.66C221.16 416.55 222.06 417.09 223.08 417.49C224.04 417.83 225.2 418.03 226.47 418.03L226.47 425.89ZM247.61 407.26C247.61 413.02 245.75 417.56 242.04 420.88C238.32 424.26 233.14 425.89 226.47 425.89L226.47 418.03L226.54 418.03C227.69 418.03 228.72 417.9 229.74 417.56C230.77 417.22 231.66 416.61 232.37 415.8C233.2 414.92 233.78 413.84 234.16 412.55C234.55 411.26 234.8 409.57 234.8 407.34C234.8 405.23 234.55 403.54 234.16 402.12C233.71 400.7 233.2 399.62 232.43 398.73C231.73 397.93 230.83 397.31 229.81 396.97C228.78 396.57 227.63 396.43 226.47 396.43L226.47 388.58C233.2 388.58 238.39 390.2 242.1 393.59C245.75 396.91 247.61 401.44 247.61 407.26ZM276.17 424.94C274.89 425.21 273.48 425.48 271.94 425.69C270.47 425.82 268.67 425.89 266.5 425.89C261.69 425.89 258.11 425.01 255.74 423.25C253.43 421.49 252.21 418.44 252.21 414.18L252.21 397.72L247.15 397.72L247.15 390.07L252.21 390.07L252.21 380.05L264.64 380.05L264.64 390.07L276.17 390.07L276.17 397.72L264.64 397.72L264.64 410.18L264.64 413.43C264.64 414.31 264.83 415.12 265.22 415.87C265.54 416.61 266.11 417.15 266.88 417.63C267.71 418.04 268.93 418.23 270.47 418.23C271.11 418.23 271.94 418.1 272.96 417.9C274.05 417.63 274.75 417.43 275.14 417.15L276.17 417.15L276.17 424.94ZM296.46 409.5L288.45 409.5C288.64 412.21 289.8 414.31 291.91 415.8C293.13 416.62 294.6 417.22 296.46 417.56L296.46 425.82C290.37 425.35 285.63 423.86 282.11 421.15C278.01 417.96 275.96 413.43 275.96 407.61C275.96 401.78 277.88 397.18 281.79 393.79C285.44 390.68 290.31 388.98 296.46 388.71L296.46 395.76C294.28 395.82 292.42 396.36 291.01 397.45C289.47 398.6 288.58 400.36 288.39 402.86L296.46 402.86L296.46 409.5ZM296.46 417.56C297.87 417.83 299.47 417.96 301.26 417.96C303.89 417.96 306.45 417.56 308.88 416.68C311.32 415.87 313.24 414.92 314.71 413.97L316.06 413.97L316.06 422.97C313.24 423.99 310.62 424.74 308.18 425.21C305.68 425.69 302.93 425.89 299.92 425.89C298.7 425.89 297.55 425.89 296.46 425.82L296.46 417.56ZM316.76 409.5L296.46 409.5L296.46 402.86L304.47 402.86C304.4 400.5 303.76 398.73 302.54 397.58C301.33 396.36 299.47 395.76 296.9 395.76L296.46 395.76L296.46 388.71L297.87 388.71C304.14 388.71 308.88 390.13 312.02 393.05C315.23 395.96 316.76 400.09 316.76 405.51L316.76 409.5ZM341.28 425.89C337.95 425.89 334.88 425.55 332.06 424.81C329.31 424.06 326.87 422.97 324.82 421.42C322.77 419.93 321.17 417.96 320.08 415.66C318.93 413.36 318.35 410.65 318.35 407.53C318.35 404.29 318.99 401.44 320.21 399.07C321.36 396.71 323.03 394.67 325.2 393.12C327.32 391.63 329.69 390.54 332.44 389.86C335.13 389.19 338.02 388.85 340.96 388.85C343.59 388.85 346.02 389.12 348.2 389.59C350.44 390.14 352.49 390.81 354.41 391.69L354.41 401.24L352.69 401.24C352.23 400.9 351.59 400.43 350.95 399.95C350.25 399.48 349.42 398.94 348.46 398.46C347.49 398.05 346.47 397.65 345.38 397.38C344.23 397.04 342.94 396.91 341.48 396.91C338.15 396.91 335.58 397.86 333.85 399.75C332.06 401.65 331.16 404.29 331.16 407.53C331.16 410.92 332.06 413.5 333.91 415.26C335.71 417.02 338.27 417.9 341.66 417.9C343.2 417.9 344.61 417.69 345.89 417.36C347.11 417.09 348.14 416.68 348.97 416.27C349.74 415.8 350.44 415.39 351.02 414.92C351.65 414.44 352.18 414.04 352.69 413.56L354.41 413.56L354.41 423.18C352.49 423.99 350.44 424.67 348.33 425.14C346.21 425.69 343.91 425.89 341.28 425.89ZM376.58 388.78L376.58 396.71C375.55 396.57 374.4 396.57 373.12 396.57C371.12 396.57 368.95 396.91 366.65 397.52C364.28 398.19 362.61 398.66 361.65 399.07L360.5 399.07L360.5 390.54C361.78 390.27 363.95 389.86 366.91 389.46C369.79 389.05 372.79 388.78 375.74 388.78L376.58 388.78ZM376.58 409.16C375.29 409.37 374.27 409.57 373.5 409.77C372.28 410.11 371.32 410.65 370.68 411.33C370.03 412.01 369.72 412.89 369.72 413.97C369.72 414.72 369.79 415.33 369.91 415.8C370.03 416.21 370.42 416.68 370.94 417.09C371.45 417.49 372.09 417.83 372.86 418.04C373.56 418.23 374.72 418.31 376.25 418.31L376.58 418.31L376.58 425.01C375.8 425.21 375.1 425.42 374.33 425.55C373.05 425.82 371.58 425.89 370.03 425.89C366.39 425.89 363.31 424.87 360.82 422.84C358.38 420.74 357.1 418.1 357.1 414.92C357.1 412.35 357.74 410.25 359.02 408.62C360.31 407 362.03 405.71 364.4 404.76C366.65 403.82 369.53 403.14 372.92 402.73C374.08 402.59 375.29 402.46 376.58 402.39L376.58 409.16ZM383.36 415.8L383.36 408.48C381.7 408.62 379.9 408.76 377.98 408.96C377.47 409.03 376.95 409.1 376.58 409.16L376.58 402.39C378.81 402.12 381.12 401.99 383.43 401.85L383.43 401.65C383.43 399.75 382.59 398.4 380.87 397.65C379.71 397.18 378.3 396.84 376.58 396.71L376.58 388.78C383.17 388.92 387.98 389.86 390.99 391.76C394.13 393.73 395.66 396.84 395.66 401.04L395.66 424.94L383.36 424.94L383.36 421.22C382.72 421.69 381.89 422.23 380.93 422.91C379.9 423.52 379.01 424.06 378.11 424.47C377.6 424.67 377.09 424.87 376.58 425.01L376.58 418.31C377.66 418.23 378.88 418.04 380.03 417.63C381.31 417.15 382.4 416.55 383.36 415.8Z"/>
	</g>
</svg>